<svg width="20" height="20" viewBox="0 0 20 20" fill="none" xmlns="http://www.w3.org/2000/svg">
<g id="vuesax/linear/briefcase">
<g id="briefcase">
<path id="Vector (Stroke)" fill-rule="evenodd" clip-rule="evenodd" d="M1.17571 5.24913C1.98734 4.28419 3.37885 3.8125 5.41663 3.8125H14.5833C16.6211 3.8125 18.0126 4.28419 18.8242 5.24913C19.628 6.20469 19.7044 7.46006 19.5756 8.63061L18.8878 15.9674C18.7868 16.9098 18.5502 17.943 17.7088 18.7117C16.8736 19.4748 15.5796 19.8542 13.6666 19.8542H6.3333C4.42035 19.8542 3.12637 19.4748 2.29116 18.7117C1.44972 17.943 1.21319 16.9098 1.11221 15.9674L1.11124 15.9583L0.42433 8.63063C0.295512 7.46008 0.37196 6.2047 1.17571 5.24913ZM2.22797 6.13421C1.79556 6.6483 1.67384 7.42076 1.79163 8.48522L1.7929 8.49665L2.47987 15.8254C2.57158 16.6773 2.76143 17.279 3.21857 17.6966C3.68273 18.1206 4.56125 18.4792 6.3333 18.4792H13.6666C15.4387 18.4792 16.3172 18.1206 16.7814 17.6966C17.2385 17.279 17.4284 16.6773 17.5201 15.8254L18.2082 8.48521C18.326 7.42075 18.2044 6.6483 17.772 6.13421C17.3461 5.62789 16.4597 5.1875 14.5833 5.1875H5.41663C3.54025 5.1875 2.65385 5.62789 2.22797 6.13421Z" fill="#F1F1F1"/>
<path id="Vector (Stroke)_2" fill-rule="evenodd" clip-rule="evenodd" d="M7.0608 2.71289C7.02186 3.01116 7.02075 3.35012 7.02075 3.76671V4.50004C7.02075 4.87974 6.71295 5.18754 6.33325 5.18754C5.95356 5.18754 5.64575 4.87974 5.64575 4.50004L5.64575 3.74288C5.64573 3.35465 5.64571 2.9306 5.69737 2.53488C5.75091 2.12485 5.86562 1.68955 6.13436 1.30072C6.69969 0.482741 7.7353 0.145874 9.26659 0.145874H10.7333C12.2645 0.145874 13.3001 0.482741 13.8655 1.30072C14.1342 1.68955 14.2489 2.12485 14.3025 2.53488C14.3541 2.9306 14.3541 3.35465 14.3541 3.74289L14.3541 4.50004C14.3541 4.87974 14.0463 5.18754 13.6666 5.18754C13.2869 5.18754 12.9791 4.87974 12.9791 4.50004V3.76671C12.9791 3.35012 12.978 3.01116 12.939 2.71289C12.9009 2.4208 12.8323 2.22418 12.7344 2.08249C12.5664 1.83942 12.1353 1.52087 10.7333 1.52087H9.26659C7.86454 1.52087 7.43348 1.83942 7.26549 2.08249C7.16756 2.22418 7.09894 2.4208 7.0608 2.71289Z" fill="#F1F1F1"/>
<path id="Vector (Stroke)_3" fill-rule="evenodd" clip-rule="evenodd" d="M8.85474 10.6882C8.85403 10.7537 8.85401 10.8283 8.85401 10.9167V11.8608C8.85401 12.1189 8.85626 12.3087 8.87867 12.4698C8.90023 12.6246 8.93445 12.7 8.96346 12.7409C8.9958 12.7865 9.15703 12.9792 9.99985 12.9792C10.8465 12.9792 11.0058 12.7847 11.0374 12.7395C11.0666 12.6978 11.1008 12.6213 11.122 12.4646C11.144 12.3017 11.1457 12.111 11.1457 11.8517V10.9167C11.1457 10.8283 11.1457 10.7537 11.145 10.6882C11.0795 10.6875 11.0049 10.6875 10.9165 10.6875H9.08318C8.99477 10.6875 8.92018 10.6875 8.85474 10.6882ZM9.05307 9.3125C9.06311 9.31251 9.07315 9.31251 9.08318 9.31251H10.9165C10.9265 9.31251 10.9366 9.31251 10.9466 9.3125C11.1493 9.31246 11.3548 9.31241 11.5224 9.33104C11.6932 9.35002 11.9771 9.40078 12.2047 9.62846C12.4324 9.85613 12.4832 10.1399 12.5022 10.3108C12.5208 10.4784 12.5207 10.6839 12.5207 10.8866C12.5207 10.8966 12.5207 10.9066 12.5207 10.9167V11.862C12.5207 12.1 12.5207 12.3817 12.4845 12.649C12.447 12.9263 12.3648 13.241 12.1637 13.5283C11.7347 14.1407 10.9774 14.3542 9.99985 14.3542C9.02766 14.3542 8.27222 14.1435 7.84165 13.536C7.6392 13.2504 7.5554 12.9367 7.5168 12.6593C7.47905 12.3881 7.47901 12.1024 7.47901 11.8608V10.9167C7.47901 10.9066 7.47901 10.8966 7.47901 10.8866C7.47896 10.6839 7.47892 10.4784 7.49754 10.3108C7.51653 10.1399 7.56729 9.85613 7.79496 9.62846C8.02263 9.40078 8.30645 9.35002 8.47731 9.33104C8.64493 9.31241 8.85036 9.31246 9.05307 9.3125Z" fill="#F1F1F1"/>
<path id="Vector (Stroke)_4" fill-rule="evenodd" clip-rule="evenodd" d="M19.4018 8.67905C19.6252 8.98613 19.5573 9.4161 19.2502 9.63943C17.0354 11.2502 14.505 12.2083 11.9192 12.5339C11.5425 12.5813 11.1987 12.3144 11.1512 11.9377C11.1038 11.5609 11.3707 11.2171 11.7474 11.1696C14.1117 10.8719 16.4213 9.99665 18.4415 8.52742C18.7485 8.30409 19.1785 8.37198 19.4018 8.67905Z" fill="#F1F1F1"/>
<path id="Vector (Stroke)_5" fill-rule="evenodd" clip-rule="evenodd" d="M0.83434 8.94257C1.0488 8.62923 1.47666 8.54908 1.78999 8.76354C3.75981 10.1118 5.98111 10.9244 8.24318 11.1776C8.62052 11.2199 8.89216 11.56 8.84991 11.9374C8.80766 12.3147 8.46751 12.5864 8.09018 12.5441C5.60391 12.2657 3.16855 11.3733 1.01337 9.89821C0.700035 9.68375 0.619882 9.2559 0.83434 8.94257Z" fill="#F1F1F1"/>
</g>
</g>
</svg>
