<svg width="149" height="119" viewBox="0 0 149 119" fill="none" xmlns="http://www.w3.org/2000/svg">
<g id="&#240;&#159;&#166;&#134; icon &#34;folder sharp&#34;">
<path id="Vector" d="M0 109.935C0 112.229 0.915726 114.428 2.54573 116.049C4.17573 117.671 6.38649 118.582 8.69167 118.582H140.308C142.614 118.582 144.824 117.671 146.454 116.049C148.084 114.428 149 112.229 149 109.935V44.4683H0V109.935Z" fill="#DDA82A"/>
<path id="Vector_2" d="M149 18.5284C149 16.2352 148.084 14.0359 146.454 12.4144C144.824 10.7928 142.614 9.88184 140.308 9.88184H61.1024L46.2024 0H8.69167C6.38649 0 4.17573 0.91098 2.54573 2.53253C0.915726 4.15409 0 6.35338 0 8.64661V34.5864H149V18.5284Z" fill="#DDA82A"/>
</g>
</svg>
