<svg width="20" height="20" viewBox="0 0 20 20" fill="none" xmlns="http://www.w3.org/2000/svg">
<g id="vuesax/linear/category-2">
<g id="category-2">
<path id="Vector (Stroke)" fill-rule="evenodd" clip-rule="evenodd" d="M12.0347 1.03474C12.6675 0.402 13.5607 0.145874 14.5834 0.145874H16.4167C17.4393 0.145874 18.3326 0.402 18.9653 1.03474C19.5981 1.66748 19.8542 2.56073 19.8542 3.58337V5.41671C19.8542 6.43935 19.5981 7.33261 18.9653 7.96534C18.3326 8.59808 17.4393 8.85421 16.4167 8.85421H14.5834C13.5607 8.85421 12.6675 8.59808 12.0347 7.96534C11.402 7.33261 11.1459 6.43935 11.1459 5.41671V3.58337C11.1459 2.56073 11.402 1.66748 12.0347 1.03474ZM13.007 2.00701C12.7231 2.29094 12.5209 2.77268 12.5209 3.58337V5.41671C12.5209 6.2274 12.7231 6.70914 13.007 6.99307C13.2909 7.277 13.7727 7.47921 14.5834 7.47921H16.4167C17.2274 7.47921 17.7091 7.277 17.9931 6.99307C18.277 6.70914 18.4792 6.2274 18.4792 5.41671V3.58337C18.4792 2.77268 18.277 2.29094 17.9931 2.00701C17.7091 1.72308 17.2274 1.52087 16.4167 1.52087H14.5834C13.7727 1.52087 13.2909 1.72308 13.007 2.00701Z" fill="#DDA82A"/>
<path id="Vector (Stroke)_2" fill-rule="evenodd" clip-rule="evenodd" d="M1.03474 12.0347C1.66748 11.402 2.56073 11.1459 3.58337 11.1459H5.41671C6.43935 11.1459 7.33261 11.402 7.96534 12.0347C8.59808 12.6675 8.85421 13.5607 8.85421 14.5834V16.4167C8.85421 17.4393 8.59808 18.3326 7.96534 18.9653C7.33261 19.5981 6.43935 19.8542 5.41671 19.8542H3.58337C2.56073 19.8542 1.66748 19.5981 1.03474 18.9653C0.402 18.3326 0.145874 17.4393 0.145874 16.4167V14.5834C0.145874 13.5607 0.402 12.6675 1.03474 12.0347ZM2.00701 13.007C1.72308 13.2909 1.52087 13.7727 1.52087 14.5834V16.4167C1.52087 17.2274 1.72308 17.7091 2.00701 17.9931C2.29094 18.277 2.77268 18.4792 3.58337 18.4792H5.41671C6.2274 18.4792 6.70914 18.277 6.99307 17.9931C7.277 17.7091 7.47921 17.2274 7.47921 16.4167V14.5834C7.47921 13.7727 7.277 13.2909 6.99307 13.007C6.70914 12.7231 6.2274 12.5209 5.41671 12.5209H3.58337C2.77268 12.5209 2.29094 12.7231 2.00701 13.007Z" fill="#DDA82A"/>
<path id="Vector (Stroke)_3" fill-rule="evenodd" clip-rule="evenodd" d="M4.50004 1.52087C2.85469 1.52087 1.52087 2.85469 1.52087 4.50004C1.52087 6.14539 2.85469 7.47921 4.50004 7.47921C6.14539 7.47921 7.47921 6.14539 7.47921 4.50004C7.47921 2.85469 6.14539 1.52087 4.50004 1.52087ZM0.145874 4.50004C0.145874 2.0953 2.0953 0.145874 4.50004 0.145874C6.90478 0.145874 8.85421 2.0953 8.85421 4.50004C8.85421 6.90478 6.90478 8.85421 4.50004 8.85421C2.0953 8.85421 0.145874 6.90478 0.145874 4.50004Z" fill="#DDA82A"/>
<path id="Vector (Stroke)_4" fill-rule="evenodd" clip-rule="evenodd" d="M15.5 12.5209C13.8547 12.5209 12.5209 13.8547 12.5209 15.5C12.5209 17.1454 13.8547 18.4792 15.5 18.4792C17.1454 18.4792 18.4792 17.1454 18.4792 15.5C18.4792 13.8547 17.1454 12.5209 15.5 12.5209ZM11.1459 15.5C11.1459 13.0953 13.0953 11.1459 15.5 11.1459C17.9048 11.1459 19.8542 13.0953 19.8542 15.5C19.8542 17.9048 17.9048 19.8542 15.5 19.8542C13.0953 19.8542 11.1459 17.9048 11.1459 15.5Z" fill="#DDA82A"/>
</g>
</g>
</svg>
