<svg width="814" height="600" viewBox="0 0 814 600" fill="none" xmlns="http://www.w3.org/2000/svg">
<g opacity="0.7">
<path opacity="0.11" d="M201.358 483.201C201.903 482.848 202.057 482.12 201.704 481.576C201.351 481.031 200.623 480.876 200.079 481.23C199.535 481.583 199.38 482.311 199.733 482.855C200.086 483.399 200.814 483.554 201.358 483.201Z" fill="white"/>
<path d="M208.072 486.542C208.48 486.278 208.597 485.732 208.332 485.324C208.067 484.916 207.521 484.8 207.113 485.064C206.705 485.329 206.589 485.875 206.854 486.283C207.118 486.691 207.664 486.807 208.072 486.542Z" fill="white"/>
<path d="M217.62 465.649C218.028 465.384 218.144 464.838 217.879 464.43C217.614 464.022 217.069 463.906 216.66 464.171C216.252 464.435 216.136 464.981 216.401 465.389C216.666 465.797 217.211 465.913 217.62 465.649Z" fill="white"/>
<path d="M175.105 491.836C175.513 491.571 175.629 491.025 175.364 490.617C175.099 490.209 174.554 490.093 174.146 490.357C173.738 490.622 173.621 491.168 173.886 491.576C174.151 491.984 174.697 492.1 175.105 491.836Z" fill="white"/>
<path opacity="0.11" d="M158.39 519.485C158.934 519.132 159.089 518.404 158.736 517.86C158.383 517.316 157.655 517.161 157.111 517.514C156.566 517.867 156.411 518.595 156.765 519.139C157.118 519.684 157.846 519.838 158.39 519.485Z" fill="white"/>
<path d="M142 514.72C142.272 514.543 142.349 514.18 142.173 513.908C141.997 513.636 141.633 513.558 141.361 513.735C141.089 513.911 141.012 514.275 141.188 514.547C141.365 514.819 141.728 514.896 142 514.72Z" fill="white"/>
<path d="M212.343 503.373C212.615 503.197 212.693 502.833 212.516 502.561C212.34 502.289 211.976 502.212 211.704 502.388C211.432 502.565 211.355 502.928 211.531 503.2C211.708 503.472 212.071 503.55 212.343 503.373Z" fill="white"/>
<path d="M319.742 433.68C320.014 433.504 320.091 433.14 319.915 432.868C319.738 432.596 319.375 432.519 319.103 432.695C318.831 432.872 318.753 433.235 318.93 433.507C319.106 433.779 319.47 433.857 319.742 433.68Z" fill="white"/>
<path d="M356.171 372.23C356.443 372.054 356.52 371.69 356.344 371.418C356.167 371.146 355.804 371.069 355.532 371.245C355.26 371.422 355.183 371.785 355.359 372.057C355.536 372.329 355.899 372.407 356.171 372.23Z" fill="white"/>
<path d="M398.726 395.723C398.998 395.547 399.076 395.183 398.899 394.911C398.723 394.639 398.359 394.562 398.087 394.738C397.815 394.915 397.738 395.278 397.914 395.55C398.091 395.822 398.454 395.9 398.726 395.723Z" fill="white"/>
<path d="M40.3039 597.517C40.5758 597.341 40.6532 596.977 40.4767 596.705C40.3002 596.433 39.9367 596.356 39.6648 596.532C39.3928 596.709 39.3154 597.072 39.4919 597.344C39.6684 597.616 40.0319 597.694 40.3039 597.517Z" fill="white"/>
<path opacity="0.11" d="M15.6554 575.708C15.9274 575.532 16.0047 575.168 15.8283 574.896C15.6518 574.624 15.2883 574.547 15.0163 574.724C14.7444 574.9 14.667 575.264 14.8435 575.535C15.0199 575.807 15.3835 575.885 15.6554 575.708Z" fill="white"/>
<path opacity="0.11" d="M1.82825 600.786C2.10019 600.609 2.17759 600.246 2.00111 599.974C1.82463 599.702 1.46112 599.624 1.18918 599.801C0.917232 599.977 0.839831 600.341 1.01631 600.613C1.19279 600.885 1.5563 600.962 1.82825 600.786Z" fill="white"/>
<path opacity="0.11" d="M141.717 524.001C141.989 523.825 142.067 523.461 141.89 523.189C141.714 522.917 141.35 522.84 141.078 523.016C140.806 523.193 140.729 523.556 140.905 523.828C141.082 524.1 141.445 524.178 141.717 524.001Z" fill="white"/>
<path opacity="0.11" d="M222.875 521.748C223.147 521.571 223.224 521.208 223.048 520.936C222.872 520.664 222.508 520.586 222.236 520.763C221.964 520.939 221.887 521.303 222.063 521.575C222.24 521.847 222.603 521.924 222.875 521.748Z" fill="white"/>
<path opacity="0.11" d="M314.257 455.439C314.529 455.263 314.606 454.899 314.43 454.627C314.253 454.356 313.89 454.278 313.618 454.455C313.346 454.631 313.269 454.995 313.445 455.267C313.622 455.538 313.985 455.616 314.257 455.439Z" fill="white"/>
<path opacity="0.3" d="M54.9757 570.494C55.2477 570.317 55.3251 569.954 55.1486 569.682C54.9721 569.41 54.6086 569.333 54.3366 569.509C54.0647 569.686 53.9873 570.049 54.1638 570.321C54.3403 570.593 54.7038 570.67 54.9757 570.494Z" fill="white"/>
<path d="M151.015 470.362C151.287 470.185 151.364 469.822 151.188 469.55C151.011 469.278 150.648 469.2 150.376 469.377C150.104 469.553 150.026 469.917 150.203 470.189C150.379 470.461 150.743 470.538 151.015 470.362Z" fill="white"/>
<path d="M226.241 420.145C226.513 419.968 226.591 419.605 226.414 419.333C226.238 419.061 225.874 418.983 225.602 419.16C225.33 419.336 225.253 419.7 225.429 419.972C225.606 420.244 225.969 420.321 226.241 420.145Z" fill="white"/>
<path d="M146.929 537.423C147.201 537.247 147.279 536.883 147.102 536.611C146.926 536.34 146.562 536.262 146.29 536.439C146.018 536.615 145.941 536.979 146.117 537.251C146.294 537.523 146.657 537.6 146.929 537.423Z" fill="white"/>
<path opacity="0.3" d="M112.445 559.804C112.717 559.628 112.794 559.264 112.618 558.992C112.441 558.72 112.078 558.643 111.806 558.819C111.534 558.996 111.457 559.359 111.633 559.631C111.809 559.903 112.173 559.98 112.445 559.804Z" fill="white"/>
<path opacity="0.11" d="M52.2336 555.472C52.5055 555.296 52.5829 554.932 52.4064 554.66C52.2299 554.389 51.8664 554.311 51.5944 554.488C51.3225 554.664 51.2451 555.028 51.4216 555.3C51.5981 555.572 51.9616 555.649 52.2336 555.472Z" fill="white"/>
<path opacity="0.3" d="M167.562 476.43C167.834 476.254 167.911 475.89 167.735 475.618C167.558 475.346 167.195 475.269 166.923 475.445C166.651 475.622 166.573 475.985 166.75 476.257C166.926 476.529 167.29 476.607 167.562 476.43Z" fill="white"/>
<path opacity="0.3" d="M161.382 541.349C161.654 541.173 161.731 540.809 161.555 540.537C161.378 540.265 161.015 540.188 160.743 540.364C160.471 540.541 160.394 540.904 160.57 541.176C160.747 541.448 161.11 541.525 161.382 541.349Z" fill="white"/>
<path opacity="0.3" d="M104.968 584.957C105.24 584.781 105.317 584.417 105.141 584.146C104.964 583.874 104.601 583.796 104.329 583.973C104.057 584.149 103.979 584.513 104.156 584.785C104.332 585.057 104.696 585.134 104.968 584.957Z" fill="white"/>
<path opacity="0.3" d="M69.2653 561.224C69.5372 561.048 69.6146 560.684 69.4382 560.412C69.2617 560.14 68.8981 560.063 68.6262 560.239C68.3542 560.416 68.2769 560.779 68.4534 561.051C68.6298 561.323 68.9933 561.401 69.2653 561.224Z" fill="white"/>
<path opacity="0.3" d="M374.718 360.896C374.99 360.72 375.068 360.356 374.891 360.084C374.715 359.812 374.351 359.735 374.079 359.911C373.807 360.088 373.73 360.451 373.906 360.723C374.083 360.995 374.446 361.073 374.718 360.896Z" fill="white"/>
<path opacity="0.11" d="M282.296 392.167C282.568 391.991 282.645 391.627 282.469 391.355C282.292 391.083 281.929 391.006 281.657 391.182C281.385 391.359 281.308 391.722 281.484 391.994C281.661 392.266 282.024 392.344 282.296 392.167Z" fill="white"/>
<path opacity="0.11" d="M375.164 390.708C375.436 390.532 375.514 390.168 375.337 389.896C375.161 389.624 374.797 389.547 374.525 389.723C374.253 389.9 374.176 390.263 374.352 390.535C374.529 390.807 374.892 390.885 375.164 390.708Z" fill="white"/>
<path opacity="0.3" d="M253.405 476.028C253.949 475.675 254.104 474.947 253.751 474.403C253.397 473.858 252.67 473.703 252.125 474.057C251.581 474.41 251.426 475.137 251.779 475.682C252.133 476.226 252.86 476.381 253.405 476.028Z" fill="white"/>
<path opacity="0.11" d="M272.883 442.386C273.427 442.033 273.582 441.306 273.229 440.761C272.875 440.217 272.148 440.062 271.603 440.415C271.059 440.768 270.904 441.496 271.257 442.04C271.611 442.585 272.338 442.74 272.883 442.386Z" fill="white"/>
<path d="M261.448 425.304C261.856 425.04 261.973 424.494 261.708 424.086C261.443 423.678 260.897 423.562 260.489 423.826C260.081 424.091 259.965 424.637 260.23 425.045C260.494 425.453 261.04 425.569 261.448 425.304Z" fill="white"/>
<path d="M261.027 499.09C261.435 498.825 261.551 498.279 261.286 497.871C261.021 497.463 260.476 497.347 260.068 497.612C259.659 497.876 259.543 498.422 259.808 498.83C260.073 499.238 260.619 499.354 261.027 499.09Z" fill="white"/>
<path d="M430.972 402.803C431.38 402.538 431.496 401.992 431.232 401.584C430.967 401.176 430.421 401.06 430.013 401.325C429.605 401.59 429.489 402.135 429.754 402.543C430.018 402.952 430.564 403.068 430.972 402.803Z" fill="white"/>
<path d="M105.815 601.91C106.224 601.645 106.34 601.1 106.075 600.692C105.81 600.284 105.264 600.167 104.856 600.432C104.448 600.697 104.332 601.243 104.597 601.651C104.862 602.059 105.407 602.175 105.815 601.91Z" fill="white"/>
<path d="M244.198 450.502C244.606 450.237 244.723 449.692 244.458 449.283C244.193 448.875 243.647 448.759 243.239 449.024C242.831 449.289 242.715 449.834 242.98 450.243C243.244 450.651 243.79 450.767 244.198 450.502Z" fill="white"/>
<path d="M182.136 542.584C182.544 542.319 182.66 541.773 182.395 541.365C182.13 540.957 181.585 540.841 181.177 541.105C180.768 541.37 180.652 541.916 180.917 542.324C181.182 542.732 181.728 542.848 182.136 542.584Z" fill="white"/>
<path d="M320.027 483.204C320.435 482.939 320.551 482.394 320.286 481.986C320.021 481.578 319.476 481.461 319.068 481.726C318.659 481.991 318.543 482.537 318.808 482.945C319.073 483.353 319.619 483.469 320.027 483.204Z" fill="white"/>
<path d="M428.831 364.985C429.239 364.72 429.355 364.175 429.09 363.766C428.826 363.358 428.28 363.242 427.872 363.507C427.464 363.772 427.348 364.317 427.612 364.726C427.877 365.134 428.423 365.25 428.831 364.985Z" fill="white"/>
<path d="M423.072 330.218C423.48 329.953 423.597 329.407 423.332 328.999C423.067 328.591 422.521 328.475 422.113 328.739C421.705 329.004 421.589 329.55 421.854 329.958C422.118 330.366 422.664 330.482 423.072 330.218Z" fill="white"/>
<path opacity="0.3" d="M302.412 399.421C302.957 399.068 303.112 398.34 302.758 397.796C302.405 397.251 301.677 397.096 301.133 397.45C300.589 397.803 300.434 398.531 300.787 399.075C301.14 399.619 301.868 399.774 302.412 399.421Z" fill="white"/>
<path d="M279.71 364.445C280.254 364.092 280.409 363.364 280.056 362.82C279.702 362.276 278.975 362.121 278.43 362.474C277.886 362.827 277.731 363.555 278.084 364.099C278.438 364.644 279.165 364.799 279.71 364.445Z" fill="white"/>
<path d="M334.815 393.795C335.224 393.53 335.34 392.984 335.075 392.576C334.81 392.168 334.264 392.052 333.856 392.317C333.448 392.581 333.332 393.127 333.597 393.535C333.862 393.943 334.407 394.059 334.815 393.795Z" fill="white"/>
<path opacity="0.3" d="M346.241 359.077C346.785 358.723 346.94 357.996 346.587 357.451C346.234 356.907 345.506 356.752 344.962 357.105C344.417 357.459 344.262 358.186 344.616 358.731C344.969 359.275 345.697 359.43 346.241 359.077Z" fill="white"/>
<path opacity="0.3" d="M417.71 362.404C418.255 362.05 418.409 361.323 418.056 360.778C417.703 360.234 416.975 360.079 416.431 360.432C415.887 360.786 415.732 361.513 416.085 362.058C416.438 362.602 417.166 362.757 417.71 362.404Z" fill="white"/>
<path opacity="0.3" d="M360.709 400.792C361.254 400.439 361.409 399.711 361.055 399.167C360.702 398.623 359.974 398.468 359.43 398.821C358.886 399.174 358.731 399.902 359.084 400.446C359.437 400.991 360.165 401.145 360.709 400.792Z" fill="white"/>
<path opacity="0.3" d="M83.3738 592.671C83.9182 592.318 84.0731 591.591 83.7198 591.046C83.3665 590.502 82.6389 590.347 82.0945 590.7C81.5502 591.053 81.3953 591.781 81.7485 592.325C82.1018 592.87 82.8294 593.025 83.3738 592.671Z" fill="white"/>
<path opacity="0.3" d="M25.8816 591.474C26.426 591.121 26.5809 590.393 26.2276 589.849C25.8743 589.304 25.1467 589.149 24.6023 589.503C24.058 589.856 23.9031 590.583 24.2563 591.128C24.6096 591.672 25.3373 591.827 25.8816 591.474Z" fill="white"/>
<path opacity="0.11" d="M387.921 360.732C388.465 360.379 388.62 359.651 388.267 359.107C387.913 358.563 387.186 358.408 386.641 358.761C386.097 359.114 385.942 359.842 386.295 360.386C386.649 360.931 387.376 361.085 387.921 360.732Z" fill="white"/>
<path opacity="0.3" d="M85.4598 529.009C86.0041 528.655 86.159 527.928 85.8057 527.383C85.4525 526.839 84.7248 526.684 84.1805 527.037C83.6361 527.391 83.4812 528.118 83.8345 528.663C84.1877 529.207 84.9154 529.362 85.4598 529.009Z" fill="white"/>
<path opacity="0.11" d="M65.7654 527.788C66.3098 527.435 66.4647 526.707 66.1114 526.163C65.7581 525.618 65.0305 525.463 64.4861 525.817C63.9418 526.17 63.7869 526.898 64.1401 527.442C64.4934 527.986 65.2211 528.141 65.7654 527.788Z" fill="white"/>
<path opacity="0.3" d="M82.2874 561.873C82.8317 561.52 82.9866 560.792 82.6334 560.248C82.2801 559.703 81.5525 559.549 81.0081 559.902C80.4637 560.255 80.3088 560.983 80.6621 561.527C81.0154 562.071 81.743 562.226 82.2874 561.873Z" fill="white"/>
<path d="M112.752 541.401C113.161 541.136 113.277 540.59 113.012 540.182C112.747 539.774 112.201 539.658 111.793 539.923C111.385 540.188 111.269 540.733 111.534 541.141C111.799 541.549 112.344 541.666 112.752 541.401Z" fill="white"/>
<path opacity="0.11" d="M274.093 222.203C274.637 221.849 274.792 221.122 274.439 220.577C274.085 220.033 273.358 219.878 272.813 220.231C272.269 220.585 272.114 221.312 272.467 221.857C272.821 222.401 273.548 222.556 274.093 222.203Z" fill="white"/>
<path d="M280.808 225.545C281.216 225.28 281.332 224.735 281.068 224.326C280.803 223.918 280.257 223.802 279.849 224.067C279.441 224.332 279.325 224.877 279.589 225.286C279.854 225.694 280.4 225.81 280.808 225.545Z" fill="white"/>
<path d="M290.355 204.65C290.763 204.385 290.879 203.84 290.614 203.432C290.35 203.024 289.804 202.907 289.396 203.172C288.988 203.437 288.871 203.983 289.136 204.391C289.401 204.799 289.947 204.915 290.355 204.65Z" fill="white"/>
<path d="M247.839 230.838C248.247 230.573 248.363 230.027 248.098 229.619C247.833 229.211 247.288 229.095 246.88 229.36C246.472 229.624 246.355 230.17 246.62 230.578C246.885 230.986 247.431 231.102 247.839 230.838Z" fill="white"/>
<path opacity="0.11" d="M231.124 258.486C231.669 258.133 231.824 257.406 231.47 256.861C231.117 256.317 230.389 256.162 229.845 256.515C229.301 256.868 229.146 257.596 229.499 258.141C229.852 258.685 230.58 258.84 231.124 258.486Z" fill="white"/>
<path d="M214.734 253.723C215.006 253.546 215.083 253.183 214.907 252.911C214.73 252.639 214.367 252.561 214.095 252.738C213.823 252.914 213.746 253.278 213.922 253.55C214.099 253.822 214.462 253.899 214.734 253.723Z" fill="white"/>
<path d="M285.077 242.376C285.349 242.199 285.427 241.836 285.25 241.564C285.074 241.292 284.71 241.214 284.438 241.391C284.166 241.567 284.089 241.931 284.265 242.203C284.442 242.475 284.805 242.552 285.077 242.376Z" fill="white"/>
<path d="M392.476 172.683C392.748 172.507 392.825 172.143 392.649 171.871C392.472 171.599 392.109 171.522 391.837 171.699C391.565 171.875 391.487 172.239 391.664 172.51C391.84 172.782 392.204 172.86 392.476 172.683Z" fill="white"/>
<path d="M428.906 111.233C429.178 111.056 429.255 110.693 429.079 110.421C428.902 110.149 428.539 110.072 428.267 110.248C427.995 110.424 427.917 110.788 428.094 111.06C428.27 111.332 428.634 111.409 428.906 111.233Z" fill="white"/>
<path d="M471.46 134.728C471.732 134.552 471.809 134.188 471.632 133.916C471.456 133.644 471.092 133.567 470.821 133.743C470.549 133.92 470.471 134.283 470.648 134.555C470.824 134.827 471.188 134.904 471.46 134.728Z" fill="white"/>
<path d="M113.039 336.519C113.311 336.342 113.389 335.979 113.212 335.707C113.036 335.435 112.672 335.357 112.4 335.534C112.128 335.71 112.051 336.074 112.227 336.346C112.404 336.618 112.767 336.695 113.039 336.519Z" fill="white"/>
<path opacity="0.11" d="M88.3898 314.711C88.6617 314.534 88.7391 314.171 88.5626 313.899C88.3862 313.627 88.0226 313.549 87.7507 313.726C87.4788 313.902 87.4014 314.266 87.5778 314.538C87.7543 314.81 88.1178 314.887 88.3898 314.711Z" fill="white"/>
<path opacity="0.11" d="M74.5617 339.788C74.8336 339.611 74.911 339.248 74.7345 338.976C74.558 338.704 74.1945 338.627 73.9226 338.803C73.6506 338.98 73.5732 339.343 73.7497 339.615C73.9262 339.887 74.2897 339.964 74.5617 339.788Z" fill="white"/>
<path opacity="0.11" d="M110 358.797C110.272 358.62 110.349 358.257 110.173 357.985C109.996 357.713 109.633 357.636 109.361 357.812C109.089 357.989 109.011 358.352 109.188 358.624C109.364 358.896 109.728 358.973 110 358.797Z" fill="white"/>
<path opacity="0.11" d="M214.453 263.003C214.725 262.826 214.802 262.463 214.626 262.191C214.449 261.919 214.086 261.842 213.814 262.018C213.542 262.195 213.464 262.558 213.641 262.83C213.817 263.102 214.181 263.179 214.453 263.003Z" fill="white"/>
<path opacity="0.11" d="M295.609 260.75C295.88 260.573 295.958 260.21 295.781 259.938C295.605 259.666 295.241 259.589 294.969 259.765C294.698 259.942 294.62 260.305 294.797 260.577C294.973 260.849 295.337 260.926 295.609 260.75Z" fill="white"/>
<path opacity="0.11" d="M386.992 194.441C387.264 194.265 387.341 193.901 387.165 193.629C386.988 193.357 386.625 193.28 386.353 193.456C386.081 193.633 386.003 193.996 386.18 194.268C386.356 194.54 386.72 194.618 386.992 194.441Z" fill="white"/>
<path opacity="0.3" d="M127.71 309.496C127.982 309.32 128.059 308.956 127.882 308.684C127.706 308.412 127.342 308.335 127.071 308.511C126.799 308.688 126.721 309.051 126.898 309.323C127.074 309.595 127.438 309.673 127.71 309.496Z" fill="white"/>
<path d="M223.75 209.363C224.022 209.187 224.099 208.823 223.923 208.551C223.747 208.279 223.383 208.202 223.111 208.379C222.839 208.555 222.762 208.919 222.938 209.191C223.115 209.462 223.478 209.54 223.75 209.363Z" fill="white"/>
<path d="M298.976 159.146C299.248 158.97 299.325 158.606 299.149 158.334C298.972 158.062 298.609 157.985 298.337 158.161C298.065 158.338 297.987 158.701 298.164 158.973C298.34 159.245 298.704 159.323 298.976 159.146Z" fill="white"/>
<path d="M219.664 276.426C219.936 276.25 220.014 275.886 219.837 275.614C219.661 275.342 219.297 275.265 219.025 275.441C218.753 275.618 218.676 275.981 218.852 276.253C219.029 276.525 219.392 276.602 219.664 276.426Z" fill="white"/>
<path opacity="0.3" d="M185.179 298.805C185.451 298.629 185.529 298.265 185.352 297.993C185.176 297.721 184.812 297.644 184.54 297.82C184.268 297.997 184.191 298.36 184.367 298.632C184.544 298.904 184.907 298.982 185.179 298.805Z" fill="white"/>
<path opacity="0.11" d="M124.967 294.475C125.239 294.299 125.317 293.935 125.14 293.663C124.964 293.392 124.6 293.314 124.328 293.491C124.056 293.667 123.979 294.031 124.155 294.303C124.332 294.575 124.695 294.652 124.967 294.475Z" fill="white"/>
<path opacity="0.3" d="M240.296 215.431C240.568 215.255 240.645 214.891 240.468 214.619C240.292 214.347 239.928 214.27 239.656 214.446C239.385 214.623 239.307 214.986 239.484 215.258C239.66 215.53 240.024 215.608 240.296 215.431Z" fill="white"/>
<path opacity="0.3" d="M234.117 280.351C234.389 280.174 234.466 279.811 234.29 279.539C234.113 279.267 233.75 279.189 233.478 279.366C233.206 279.542 233.128 279.906 233.305 280.178C233.481 280.45 233.845 280.527 234.117 280.351Z" fill="white"/>
<path opacity="0.3" d="M177.703 323.96C177.975 323.784 178.052 323.42 177.876 323.148C177.699 322.876 177.336 322.799 177.064 322.975C176.792 323.152 176.714 323.515 176.891 323.787C177.067 324.059 177.431 324.137 177.703 323.96Z" fill="white"/>
<path opacity="0.3" d="M141.999 300.227C142.271 300.05 142.349 299.687 142.172 299.415C141.996 299.143 141.632 299.066 141.36 299.242C141.088 299.419 141.011 299.782 141.187 300.054C141.364 300.326 141.727 300.403 141.999 300.227Z" fill="white"/>
<path opacity="0.3" d="M447.453 99.898C447.725 99.7216 447.802 99.358 447.626 99.0861C447.449 98.8141 447.086 98.7368 446.814 98.9132C446.542 99.0897 446.464 99.4532 446.641 99.7252C446.817 99.9971 447.181 100.075 447.453 99.898Z" fill="white"/>
<path opacity="0.11" d="M355.031 131.171C355.303 130.994 355.38 130.631 355.204 130.359C355.027 130.087 354.664 130.009 354.392 130.186C354.12 130.362 354.042 130.726 354.219 130.998C354.395 131.27 354.759 131.347 355.031 131.171Z" fill="white"/>
<path opacity="0.11" d="M447.898 129.711C448.17 129.535 448.247 129.171 448.07 128.899C447.894 128.627 447.53 128.55 447.259 128.726C446.987 128.903 446.909 129.266 447.086 129.538C447.262 129.81 447.626 129.888 447.898 129.711Z" fill="white"/>
<path opacity="0.3" d="M326.14 215.03C326.684 214.677 326.839 213.949 326.486 213.405C326.133 212.861 325.405 212.706 324.861 213.059C324.316 213.412 324.161 214.14 324.515 214.684C324.868 215.229 325.596 215.384 326.14 215.03Z" fill="white"/>
<path opacity="0.11" d="M345.616 181.389C346.16 181.035 346.315 180.308 345.962 179.763C345.609 179.219 344.881 179.064 344.337 179.417C343.792 179.771 343.637 180.498 343.991 181.043C344.344 181.587 345.072 181.742 345.616 181.389Z" fill="white"/>
<path d="M334.183 164.306C334.591 164.041 334.707 163.496 334.442 163.087C334.177 162.679 333.632 162.563 333.223 162.828C332.815 163.093 332.699 163.639 332.964 164.047C333.229 164.455 333.774 164.571 334.183 164.306Z" fill="white"/>
<path d="M333.761 238.091C334.169 237.826 334.285 237.28 334.021 236.872C333.756 236.464 333.21 236.348 332.802 236.613C332.394 236.878 332.278 237.423 332.543 237.831C332.807 238.24 333.353 238.356 333.761 238.091Z" fill="white"/>
<path d="M503.706 141.805C504.114 141.54 504.23 140.995 503.965 140.586C503.701 140.178 503.155 140.062 502.747 140.327C502.339 140.592 502.223 141.138 502.487 141.546C502.752 141.954 503.298 142.07 503.706 141.805Z" fill="white"/>
<path d="M178.55 340.913C178.958 340.648 179.074 340.102 178.809 339.694C178.544 339.286 177.999 339.17 177.591 339.434C177.182 339.699 177.066 340.245 177.331 340.653C177.596 341.061 178.142 341.177 178.55 340.913Z" fill="white"/>
<path d="M105.683 372.1C106.091 371.835 106.207 371.29 105.942 370.882C105.678 370.474 105.132 370.357 104.724 370.622C104.316 370.887 104.2 371.433 104.464 371.841C104.729 372.249 105.275 372.365 105.683 372.1Z" fill="white"/>
<path d="M84.5185 357.83C84.9267 357.565 85.0428 357.02 84.778 356.612C84.5131 356.204 83.9675 356.087 83.5593 356.352C83.1512 356.617 83.035 357.163 83.2999 357.571C83.5648 357.979 84.1104 358.095 84.5185 357.83Z" fill="white"/>
<path d="M316.933 189.505C317.341 189.24 317.457 188.694 317.192 188.286C316.927 187.878 316.382 187.762 315.973 188.027C315.565 188.291 315.449 188.837 315.714 189.245C315.979 189.653 316.524 189.769 316.933 189.505Z" fill="white"/>
<path d="M254.87 281.585C255.278 281.32 255.394 280.774 255.13 280.366C254.865 279.958 254.319 279.842 253.911 280.107C253.503 280.372 253.387 280.917 253.651 281.325C253.916 281.733 254.462 281.85 254.87 281.585Z" fill="white"/>
<path d="M392.761 222.206C393.169 221.941 393.285 221.395 393.02 220.987C392.755 220.579 392.21 220.463 391.802 220.728C391.393 220.992 391.277 221.538 391.542 221.946C391.807 222.354 392.353 222.471 392.761 222.206Z" fill="white"/>
<path d="M501.566 103.987C501.974 103.722 502.09 103.176 501.825 102.768C501.56 102.36 501.015 102.244 500.607 102.509C500.199 102.774 500.082 103.319 500.347 103.727C500.612 104.135 501.158 104.252 501.566 103.987Z" fill="white"/>
<path d="M495.808 69.2211C496.216 68.9562 496.332 68.4106 496.067 68.0024C495.802 67.5943 495.257 67.4781 494.848 67.743C494.44 68.0079 494.324 68.5535 494.589 68.9616C494.854 69.3698 495.399 69.4859 495.808 69.2211Z" fill="white"/>
<path opacity="0.3" d="M375.147 138.422C375.691 138.069 375.846 137.341 375.493 136.797C375.139 136.252 374.412 136.098 373.867 136.451C373.323 136.804 373.168 137.532 373.521 138.076C373.875 138.62 374.602 138.775 375.147 138.422Z" fill="white"/>
<path d="M352.444 103.448C352.988 103.094 353.143 102.367 352.79 101.822C352.436 101.278 351.709 101.123 351.164 101.476C350.62 101.83 350.465 102.557 350.818 103.102C351.172 103.646 351.899 103.801 352.444 103.448Z" fill="white"/>
<path d="M407.55 132.797C407.958 132.532 408.074 131.986 407.809 131.578C407.544 131.17 406.999 131.054 406.591 131.319C406.182 131.584 406.066 132.129 406.331 132.537C406.596 132.946 407.142 133.062 407.55 132.797Z" fill="white"/>
<path opacity="0.3" d="M418.976 98.0784C419.52 97.7251 419.675 96.9975 419.322 96.4531C418.969 95.9088 418.241 95.7539 417.697 96.1071C417.152 96.4604 416.997 97.1881 417.351 97.7324C417.704 98.2768 418.431 98.4317 418.976 98.0784Z" fill="white"/>
<path opacity="0.3" d="M490.444 101.406C490.988 101.052 491.143 100.325 490.79 99.7805C490.436 99.2361 489.709 99.0812 489.164 99.4345C488.62 99.7877 488.465 100.515 488.818 101.06C489.172 101.604 489.899 101.759 490.444 101.406Z" fill="white"/>
<path opacity="0.3" d="M433.444 139.795C433.988 139.441 434.143 138.714 433.79 138.169C433.436 137.625 432.709 137.47 432.164 137.823C431.62 138.177 431.465 138.904 431.818 139.449C432.172 139.993 432.899 140.148 433.444 139.795Z" fill="white"/>
<path opacity="0.3" d="M156.108 331.674C156.653 331.32 156.807 330.593 156.454 330.048C156.101 329.504 155.373 329.349 154.829 329.702C154.285 330.056 154.13 330.783 154.483 331.328C154.836 331.872 155.564 332.027 156.108 331.674Z" fill="white"/>
<path opacity="0.3" d="M98.6155 330.477C99.1599 330.124 99.3148 329.396 98.9615 328.852C98.6082 328.307 97.8806 328.152 97.3362 328.506C96.7919 328.859 96.637 329.587 96.9902 330.131C97.3435 330.675 98.0712 330.83 98.6155 330.477Z" fill="white"/>
<path opacity="0.11" d="M460.655 99.7345C461.199 99.3812 461.354 98.6535 461.001 98.1092C460.648 97.5648 459.92 97.4099 459.376 97.7632C458.831 98.1164 458.677 98.8441 459.03 99.3885C459.383 99.9328 460.111 100.088 460.655 99.7345Z" fill="white"/>
<path opacity="0.3" d="M158.194 268.012C158.738 267.659 158.893 266.931 158.54 266.387C158.186 265.842 157.459 265.687 156.914 266.041C156.37 266.394 156.215 267.121 156.568 267.666C156.922 268.21 157.649 268.365 158.194 268.012Z" fill="white"/>
<path opacity="0.11" d="M138.498 266.789C139.043 266.436 139.198 265.708 138.844 265.164C138.491 264.62 137.763 264.465 137.219 264.818C136.675 265.171 136.52 265.899 136.873 266.443C137.226 266.988 137.954 267.142 138.498 266.789Z" fill="white"/>
<path opacity="0.3" d="M155.022 300.875C155.567 300.522 155.722 299.794 155.368 299.25C155.015 298.706 154.287 298.551 153.743 298.904C153.199 299.257 153.044 299.985 153.397 300.529C153.75 301.074 154.478 301.229 155.022 300.875Z" fill="white"/>
<path d="M185.488 280.402C185.896 280.137 186.012 279.592 185.747 279.184C185.482 278.776 184.937 278.659 184.529 278.924C184.12 279.189 184.004 279.735 184.269 280.143C184.534 280.551 185.08 280.667 185.488 280.402Z" fill="white"/>
<path opacity="0.11" d="M583.226 131.283C583.77 130.93 583.925 130.203 583.572 129.658C583.219 129.114 582.491 128.959 581.947 129.312C581.402 129.665 581.247 130.393 581.601 130.937C581.954 131.482 582.681 131.637 583.226 131.283Z" fill="white"/>
<path d="M589.941 134.625C590.349 134.36 590.465 133.814 590.2 133.406C589.935 132.998 589.39 132.882 588.982 133.147C588.574 133.412 588.457 133.957 588.722 134.365C588.987 134.774 589.533 134.89 589.941 134.625Z" fill="white"/>
<path d="M599.488 113.731C599.896 113.466 600.012 112.921 599.747 112.512C599.482 112.104 598.937 111.988 598.529 112.253C598.12 112.518 598.004 113.063 598.269 113.472C598.534 113.88 599.08 113.996 599.488 113.731Z" fill="white"/>
<path d="M556.972 139.917C557.38 139.653 557.496 139.107 557.231 138.699C556.966 138.291 556.421 138.175 556.012 138.439C555.604 138.704 555.488 139.25 555.753 139.658C556.018 140.066 556.563 140.182 556.972 139.917Z" fill="white"/>
<path opacity="0.11" d="M540.257 167.566C540.801 167.213 540.956 166.485 540.603 165.941C540.25 165.397 539.522 165.242 538.978 165.595C538.433 165.948 538.279 166.676 538.632 167.22C538.985 167.765 539.713 167.92 540.257 167.566Z" fill="white"/>
<path d="M523.867 162.803C524.139 162.626 524.216 162.263 524.04 161.991C523.863 161.719 523.5 161.641 523.228 161.818C522.956 161.994 522.878 162.358 523.055 162.63C523.231 162.902 523.595 162.979 523.867 162.803Z" fill="white"/>
<path d="M594.21 151.456C594.482 151.28 594.559 150.916 594.382 150.644C594.206 150.372 593.843 150.295 593.571 150.471C593.299 150.648 593.221 151.011 593.398 151.283C593.574 151.555 593.938 151.632 594.21 151.456Z" fill="white"/>
<path d="M701.609 81.7632C701.881 81.5867 701.958 81.2232 701.782 80.9512C701.605 80.6793 701.242 80.6019 700.97 80.7784C700.698 80.9548 700.621 81.3183 700.797 81.5903C700.974 81.8622 701.337 81.9396 701.609 81.7632Z" fill="white"/>
<path d="M738.039 20.3127C738.311 20.1362 738.388 19.7727 738.212 19.5008C738.035 19.2288 737.672 19.1514 737.4 19.3279C737.128 19.5044 737.05 19.8679 737.227 20.1399C737.403 20.4118 737.767 20.4892 738.039 20.3127Z" fill="white"/>
<path d="M780.593 43.8063C780.865 43.6298 780.942 43.2663 780.766 42.9943C780.589 42.7224 780.226 42.645 779.954 42.8215C779.682 42.998 779.604 43.3615 779.781 43.6335C779.957 43.9054 780.321 43.9828 780.593 43.8063Z" fill="white"/>
<path d="M422.171 245.599C422.443 245.423 422.52 245.059 422.343 244.787C422.167 244.515 421.803 244.438 421.531 244.614C421.26 244.791 421.182 245.154 421.359 245.426C421.535 245.698 421.899 245.776 422.171 245.599Z" fill="white"/>
<path opacity="0.11" d="M397.523 223.791C397.795 223.615 397.872 223.251 397.695 222.979C397.519 222.707 397.155 222.63 396.884 222.807C396.612 222.983 396.534 223.347 396.711 223.619C396.887 223.89 397.251 223.968 397.523 223.791Z" fill="white"/>
<path opacity="0.11" d="M383.695 248.869C383.967 248.692 384.044 248.329 383.868 248.057C383.691 247.785 383.328 247.707 383.056 247.884C382.784 248.06 382.707 248.424 382.883 248.696C383.06 248.968 383.423 249.045 383.695 248.869Z" fill="white"/>
<path opacity="0.11" d="M419.132 267.877C419.404 267.701 419.482 267.337 419.305 267.065C419.129 266.793 418.765 266.716 418.493 266.892C418.221 267.069 418.144 267.432 418.321 267.704C418.497 267.976 418.861 268.054 419.132 267.877Z" fill="white"/>
<path opacity="0.11" d="M523.585 172.083C523.857 171.907 523.934 171.543 523.757 171.271C523.581 171 523.218 170.922 522.946 171.099C522.674 171.275 522.596 171.639 522.773 171.911C522.949 172.183 523.313 172.26 523.585 172.083Z" fill="white"/>
<path opacity="0.11" d="M604.734 169.83C605.006 169.653 605.083 169.29 604.907 169.018C604.73 168.746 604.367 168.669 604.095 168.845C603.823 169.022 603.746 169.385 603.922 169.657C604.099 169.929 604.462 170.006 604.734 169.83Z" fill="white"/>
<path opacity="0.11" d="M696.125 103.522C696.397 103.345 696.474 102.982 696.298 102.71C696.121 102.438 695.757 102.361 695.486 102.537C695.214 102.714 695.136 103.077 695.313 103.349C695.489 103.621 695.853 103.698 696.125 103.522Z" fill="white"/>
<path opacity="0.3" d="M436.843 218.576C437.115 218.399 437.192 218.036 437.016 217.764C436.839 217.492 436.476 217.415 436.204 217.591C435.932 217.768 435.854 218.131 436.031 218.403C436.207 218.675 436.571 218.752 436.843 218.576Z" fill="white"/>
<path d="M532.882 118.445C533.153 118.268 533.231 117.905 533.054 117.633C532.878 117.361 532.514 117.283 532.242 117.46C531.97 117.636 531.893 118 532.07 118.272C532.246 118.544 532.61 118.621 532.882 118.445Z" fill="white"/>
<path d="M608.109 68.2268C608.38 68.0503 608.458 67.6868 608.281 67.4149C608.105 67.1429 607.741 67.0655 607.469 67.242C607.197 67.4185 607.12 67.782 607.297 68.0539C607.473 68.3259 607.837 68.4033 608.109 68.2268Z" fill="white"/>
<path d="M528.796 185.507C529.068 185.331 529.145 184.967 528.968 184.695C528.792 184.423 528.428 184.346 528.156 184.522C527.885 184.699 527.807 185.063 527.984 185.334C528.16 185.606 528.524 185.684 528.796 185.507Z" fill="white"/>
<path opacity="0.3" d="M494.312 207.886C494.584 207.709 494.661 207.346 494.484 207.074C494.308 206.802 493.945 206.725 493.673 206.901C493.401 207.078 493.323 207.441 493.5 207.713C493.676 207.985 494.04 208.062 494.312 207.886Z" fill="white"/>
<path opacity="0.11" d="M434.101 203.555C434.373 203.379 434.45 203.015 434.274 202.743C434.097 202.471 433.734 202.394 433.462 202.571C433.19 202.747 433.112 203.111 433.289 203.383C433.465 203.654 433.829 203.732 434.101 203.555Z" fill="white"/>
<path opacity="0.3" d="M549.429 124.512C549.701 124.335 549.778 123.972 549.602 123.7C549.425 123.428 549.062 123.351 548.79 123.527C548.518 123.704 548.44 124.067 548.617 124.339C548.793 124.611 549.157 124.688 549.429 124.512Z" fill="white"/>
<path opacity="0.3" d="M543.25 189.431C543.522 189.255 543.599 188.891 543.423 188.62C543.246 188.348 542.882 188.27 542.611 188.447C542.339 188.623 542.261 188.987 542.438 189.259C542.614 189.531 542.978 189.608 543.25 189.431Z" fill="white"/>
<path opacity="0.3" d="M486.835 233.04C487.107 232.864 487.184 232.5 487.007 232.229C486.831 231.957 486.468 231.879 486.196 232.056C485.924 232.232 485.846 232.596 486.023 232.868C486.199 233.14 486.563 233.217 486.835 233.04Z" fill="white"/>
<path opacity="0.3" d="M451.132 209.307C451.404 209.131 451.481 208.767 451.305 208.495C451.128 208.223 450.765 208.146 450.493 208.322C450.221 208.499 450.144 208.862 450.32 209.134C450.497 209.406 450.86 209.484 451.132 209.307Z" fill="white"/>
<path opacity="0.3" d="M756.585 8.97929C756.857 8.8028 756.934 8.4393 756.757 8.16735C756.581 7.89541 756.218 7.81801 755.946 7.99449C755.674 8.17097 755.596 8.53451 755.773 8.80645C755.949 9.0784 756.313 9.15577 756.585 8.97929Z" fill="white"/>
<path opacity="0.11" d="M664.164 40.2505C664.436 40.074 664.513 39.7105 664.337 39.4385C664.16 39.1666 663.797 39.0892 663.525 39.2657C663.253 39.4422 663.175 39.8057 663.352 40.0776C663.528 40.3496 663.892 40.427 664.164 40.2505Z" fill="white"/>
<path opacity="0.11" d="M757.031 38.7911C757.303 38.6146 757.38 38.2511 757.204 37.9791C757.027 37.7072 756.664 37.6298 756.392 37.8063C756.12 37.9827 756.042 38.3463 756.219 38.6182C756.395 38.8901 756.759 38.9675 757.031 38.7911Z" fill="white"/>
<path opacity="0.3" d="M635.272 124.111C635.816 123.758 635.971 123.03 635.618 122.486C635.265 121.941 634.537 121.786 633.993 122.14C633.448 122.493 633.293 123.22 633.646 123.765C634 124.309 634.727 124.464 635.272 124.111Z" fill="white"/>
<path opacity="0.11" d="M654.749 90.4695C655.293 90.1162 655.448 89.3886 655.095 88.8442C654.742 88.2999 654.014 88.145 653.47 88.4982C652.925 88.8515 652.77 89.5792 653.124 90.1235C653.477 90.6679 654.204 90.8228 654.749 90.4695Z" fill="white"/>
<path d="M643.316 73.3869C643.724 73.122 643.84 72.5764 643.575 72.1683C643.31 71.7601 642.765 71.644 642.357 71.9088C641.949 72.1737 641.832 72.7193 642.097 73.1274C642.362 73.5356 642.908 73.6518 643.316 73.3869Z" fill="white"/>
<path d="M642.894 147.172C643.302 146.907 643.418 146.361 643.153 145.953C642.889 145.545 642.343 145.429 641.935 145.694C641.527 145.958 641.411 146.504 641.675 146.912C641.94 147.32 642.486 147.436 642.894 147.172Z" fill="white"/>
<path d="M812.839 50.8858C813.247 50.621 813.363 50.0754 813.098 49.6672C812.833 49.2591 812.288 49.1429 811.88 49.4078C811.471 49.6727 811.355 50.2183 811.62 50.6264C811.885 51.0346 812.431 51.1507 812.839 50.8858Z" fill="white"/>
<path d="M487.683 249.993C488.091 249.728 488.207 249.183 487.942 248.775C487.678 248.367 487.132 248.25 486.724 248.515C486.316 248.78 486.2 249.326 486.464 249.734C486.729 250.142 487.275 250.258 487.683 249.993Z" fill="white"/>
<path d="M414.815 281.181C415.224 280.916 415.34 280.371 415.075 279.963C414.81 279.554 414.264 279.438 413.856 279.703C413.448 279.968 413.332 280.514 413.597 280.922C413.862 281.33 414.407 281.446 414.815 281.181Z" fill="white"/>
<path d="M393.652 266.911C394.06 266.646 394.177 266.101 393.912 265.692C393.647 265.284 393.101 265.168 392.693 265.433C392.285 265.698 392.169 266.243 392.434 266.652C392.699 267.06 393.244 267.176 393.652 266.911Z" fill="white"/>
<path d="M626.066 98.5845C626.474 98.3196 626.59 97.7741 626.325 97.3659C626.06 96.9578 625.515 96.8416 625.107 97.1065C624.699 97.3713 624.582 97.9169 624.847 98.3251C625.112 98.7332 625.658 98.8494 626.066 98.5845Z" fill="white"/>
<path d="M564.003 190.666C564.411 190.401 564.527 189.855 564.262 189.447C563.997 189.039 563.452 188.923 563.044 189.187C562.636 189.452 562.519 189.998 562.784 190.406C563.049 190.814 563.595 190.93 564.003 190.666Z" fill="white"/>
<path d="M701.894 131.286C702.302 131.021 702.418 130.476 702.153 130.068C701.889 129.66 701.343 129.543 700.935 129.808C700.527 130.073 700.411 130.619 700.675 131.027C700.94 131.435 701.486 131.551 701.894 131.286Z" fill="white"/>
<path d="M810.698 13.0675C811.106 12.8026 811.222 12.257 810.958 11.8489C810.693 11.4407 810.147 11.3246 809.739 11.5894C809.331 11.8543 809.215 12.3999 809.48 12.8081C809.744 13.2162 810.29 13.3324 810.698 13.0675Z" fill="white"/>
<path opacity="0.3" d="M684.272 47.5032C684.816 47.1499 684.971 46.4223 684.618 45.8779C684.265 45.3335 683.537 45.1786 682.993 45.5319C682.448 45.8852 682.293 46.6129 682.646 47.1572C683 47.7016 683.727 47.8564 684.272 47.5032Z" fill="white"/>
<path d="M661.577 12.5283C662.121 12.175 662.276 11.4474 661.923 10.903C661.57 10.3587 660.842 10.2038 660.298 10.557C659.753 10.9103 659.598 11.6379 659.952 12.1823C660.305 12.7266 661.033 12.8816 661.577 12.5283Z" fill="white"/>
<path d="M716.683 41.8776C717.091 41.6127 717.207 41.0671 716.942 40.659C716.678 40.2508 716.132 40.1347 715.724 40.3996C715.316 40.6644 715.2 41.21 715.464 41.6182C715.729 42.0263 716.275 42.1425 716.683 41.8776Z" fill="white"/>
<path opacity="0.3" d="M728.108 7.15968C728.652 6.80641 728.807 6.07876 728.454 5.5344C728.1 4.99005 727.373 4.83513 726.828 5.1884C726.284 5.54166 726.129 6.26932 726.482 6.81368C726.836 7.35803 727.563 7.51294 728.108 7.15968Z" fill="white"/>
<path opacity="0.3" d="M799.577 10.4865C800.122 10.1332 800.277 9.40556 799.923 8.86121C799.57 8.31686 798.842 8.16195 798.298 8.51521C797.754 8.86848 797.599 9.59613 797.952 10.1405C798.305 10.6848 799.033 10.8398 799.577 10.4865Z" fill="white"/>
<path opacity="0.3" d="M742.577 48.8752C743.121 48.522 743.276 47.7943 742.923 47.2499C742.57 46.7056 741.842 46.5507 741.298 46.9039C740.753 47.2572 740.598 47.9849 740.952 48.5292C741.305 49.0736 742.033 49.2285 742.577 48.8752Z" fill="white"/>
<path opacity="0.3" d="M465.241 240.754C465.785 240.401 465.94 239.674 465.587 239.129C465.234 238.585 464.506 238.43 463.962 238.783C463.417 239.136 463.262 239.864 463.616 240.409C463.969 240.953 464.697 241.108 465.241 240.754Z" fill="white"/>
<path opacity="0.3" d="M407.749 239.558C408.293 239.204 408.448 238.477 408.095 237.932C407.742 237.388 407.014 237.233 406.47 237.586C405.925 237.94 405.77 238.667 406.124 239.212C406.477 239.756 407.204 239.911 407.749 239.558Z" fill="white"/>
<path opacity="0.11" d="M769.788 8.8152C770.332 8.46194 770.487 7.73428 770.134 7.18992C769.781 6.64557 769.053 6.49065 768.509 6.84392C767.964 7.19718 767.809 7.92484 768.163 8.46919C768.516 9.01355 769.244 9.16846 769.788 8.8152Z" fill="white"/>
<path opacity="0.3" d="M467.327 177.092C467.871 176.738 468.026 176.011 467.673 175.466C467.32 174.922 466.592 174.767 466.048 175.12C465.503 175.474 465.348 176.201 465.702 176.746C466.055 177.29 466.783 177.445 467.327 177.092Z" fill="white"/>
<path opacity="0.11" d="M447.632 175.871C448.176 175.518 448.331 174.79 447.978 174.246C447.624 173.701 446.897 173.546 446.352 173.9C445.808 174.253 445.653 174.981 446.006 175.525C446.36 176.069 447.087 176.224 447.632 175.871Z" fill="white"/>
<path opacity="0.3" d="M464.155 209.955C464.699 209.602 464.854 208.874 464.501 208.33C464.148 207.786 463.42 207.631 462.876 207.984C462.331 208.337 462.177 209.065 462.53 209.609C462.883 210.154 463.611 210.308 464.155 209.955Z" fill="white"/>
<path d="M494.62 189.483C495.028 189.218 495.144 188.672 494.879 188.264C494.614 187.856 494.069 187.74 493.66 188.005C493.252 188.269 493.136 188.815 493.401 189.223C493.666 189.631 494.211 189.747 494.62 189.483Z" fill="white"/>
</g>
</svg>
