<svg width="65" height="65" viewBox="0 0 65 65" fill="none" xmlns="http://www.w3.org/2000/svg">
<path fill-rule="evenodd" clip-rule="evenodd" d="M21.9842 4.05561C18.2124 5.74599 10.218 9.64724 9.87916 9.96274C9.11629 10.6734 9.05654 11.8606 9.74504 12.633C10.1782 13.1189 10.9355 13.379 13.4142 13.8931C20.0569 15.2709 21.293 15.535 21.6569 15.6546C22.3519 15.8831 22.4485 16.1834 22.4477 18.1116L22.4469 19.8347L20.7289 20.9809C17.9152 22.8579 7.94391 29.4427 7.15829 29.9425C5.90379 30.7407 5.62041 31.9114 6.48091 32.7414C6.98366 33.2262 7.26854 33.335 8.51829 33.5192C9.06429 33.5999 10.8682 33.8865 12.527 34.1565C14.1859 34.4264 15.5722 34.6472 15.6077 34.6472C15.643 34.6472 15.6244 34.8581 15.5662 35.116C15.5078 35.3739 15.3929 36.2129 15.3108 36.9806L15.1614 38.3764L13.7492 39.702C10.3468 42.8954 7.86366 46.8371 6.65441 50.9641C5.85504 53.692 5.53904 57.2009 6.01891 58.0202C6.33204 58.5551 6.78391 58.8857 7.39554 59.0276C7.66779 59.0907 12.3389 59.1426 17.895 59.1442L27.9042 59.1472L28.7075 59.5377C30.3025 60.313 32.1575 60.312 33.7125 59.5349L34.4883 59.1472L44.5622 59.1465C51.4269 59.1461 54.7952 59.1025 55.1359 59.0099C55.6945 58.858 56.2448 58.3992 56.5454 57.8347C57.048 56.891 56.5627 53.1569 55.5545 50.2097C54.2679 46.4491 52.203 43.2455 49.0675 40.1454L47.2325 38.3311L47.0143 36.5829C46.8942 35.6214 46.7738 34.7975 46.7467 34.7521C46.7195 34.7066 46.9085 34.6366 47.1667 34.5966C52.5014 33.7687 54.9579 33.365 55.2715 33.2647C56.2983 32.9365 56.7688 31.6474 56.1783 30.7805C55.9683 30.4721 53.6607 28.888 47.9847 25.1555C43.6389 22.2979 40.0318 19.9035 39.9687 19.8347C39.9057 19.766 39.8183 19.0265 39.7744 18.1915C39.6033 14.9311 38.9788 13.313 37.2199 11.5725C36.6298 10.9885 35.6973 10.363 33.2303 8.89636C29.7959 6.85461 27.3057 5.34574 25.8859 4.44661C24.3868 3.49711 23.4417 3.40236 21.9842 4.05561ZM49.0734 7.45211C48.8495 7.57461 48.6192 7.97211 48.2609 8.85386L47.7609 10.0847L46.4224 10.1607C44.9883 10.2421 44.5532 10.4055 44.3019 10.9571C44.0908 11.4205 44.2899 11.9025 44.9199 12.4532C45.2387 12.7319 45.7422 13.1847 46.0389 13.4597L46.5785 13.9597L46.2635 15.0847C45.9145 16.3307 45.9392 16.7275 46.3914 17.1524C46.8537 17.5866 47.321 17.5185 48.2884 16.8761C49.7277 15.9202 49.5443 15.9329 50.6995 16.7105C51.7978 17.4497 52.2265 17.5484 52.7767 17.1879C53.3123 16.837 53.3434 16.5371 52.9875 15.1505L52.6638 13.8884L53.2123 13.4295C54.5288 12.3284 54.9484 11.8297 54.9484 11.3665C54.9484 11.1185 54.8439 10.7956 54.7099 10.6299C54.4898 10.3575 54.3575 10.3299 52.9959 10.2722L51.5204 10.2097L51.2205 9.39723C50.668 7.90073 50.5565 7.69124 50.201 7.48124C49.777 7.23074 49.4914 7.22336 49.0734 7.45211ZM23.6289 22.9676C22.868 23.3694 22.4484 23.7475 22.4484 24.0311C22.4484 24.1495 22.6473 24.4209 22.8903 24.6342L23.3322 25.0222H31.1443C39.631 25.0222 39.6589 25.0201 39.9698 24.3376C40.169 23.9004 39.8313 23.44 39.0044 23.0222L38.3859 22.7097L31.3164 22.6755L24.2468 22.6414L23.6289 22.9676ZM18.9484 35.3056C18.9484 35.3417 18.8292 35.9816 18.6834 36.7277C17.9914 40.27 18.9974 43.5405 21.2643 45.1175C21.6337 45.3745 21.9707 45.6691 22.013 45.7722C22.0555 45.8754 22.1397 46.8316 22.2003 47.8972C22.3233 50.0646 22.4013 50.4196 22.938 51.2561C23.6329 52.3389 24.3297 52.816 25.9752 53.3356C27.0995 53.6907 27.4343 53.9329 27.9033 54.7302C28.2888 55.3855 29.1975 56.2299 29.7997 56.4924C30.4013 56.7546 31.9749 56.7537 32.5909 56.4907C33.1688 56.244 33.9348 55.554 34.392 54.8681C35.074 53.8455 35.3119 53.6659 36.4399 53.322C37.8149 52.903 38.4812 52.5065 39.0764 51.7535C39.9108 50.698 40.1035 49.9912 40.17 47.742L40.2283 45.7742L40.8427 45.3329C41.8165 44.6332 42.1584 44.2886 42.6933 43.4675C43.6215 42.0427 44.047 40.1497 43.9022 38.0886C43.8227 36.9591 43.5312 35.5556 43.3352 35.3591C43.2799 35.3037 42.8047 35.2975 42.279 35.3451L41.3234 35.4317V36.332C41.3234 38.4794 40.1024 41.3145 38.3939 43.1339C37.6432 43.9332 36.9852 44.2657 36.1459 44.2695C35.618 44.2719 35.2252 44.1175 33.3718 43.1795L31.2127 42.0869L29.0462 43.1795C27.274 44.0734 26.7767 44.2722 26.3137 44.2722C25.0517 44.2722 23.8374 43.2631 22.6642 41.2391C21.7502 39.6624 21.3563 38.5164 21.1784 36.9171C21.0855 36.0821 20.9644 35.5071 20.874 35.4725C20.632 35.3796 18.9484 35.2336 18.9484 35.3056ZM24.4499 36.3024C24.4507 36.7327 24.5277 37.3714 24.6209 37.7215C24.8333 38.519 25.7379 40.2734 26.1237 40.6357L26.4137 40.9082L28.5982 39.7777C29.7995 39.156 30.934 38.6472 31.1193 38.6472C31.5764 38.6472 32.6238 39.1025 34.4409 40.0907C35.2779 40.546 36.0372 40.89 36.1282 40.855C36.426 40.7407 37.4248 38.9811 37.7587 37.9824C37.9938 37.2791 38.0749 36.8059 38.0482 36.2949L38.0109 35.5847L31.2297 35.5524L24.4484 35.5201L24.4499 36.3024ZM14.7805 43.2142C11.6588 46.7051 9.61379 51.0299 9.13529 55.1531L9.04891 55.8972L16.0299 55.8907C22.5098 55.8846 22.9885 55.8696 22.6984 55.6817C22.5265 55.5705 21.964 55.05 21.4484 54.5251C19.8742 52.9225 19.1444 51.1614 18.9869 48.5847L18.9104 47.3347L17.8939 46.263C16.8707 45.184 16.132 43.9989 15.8158 42.9285C15.7295 42.6364 15.6255 42.3972 15.5849 42.3974C15.5442 42.3974 15.1822 42.765 14.7805 43.2142ZM46.4475 43.3035C46.0519 44.4695 45.1379 45.8335 44.1812 46.6856L43.4257 47.3586L43.3724 48.6592C43.3069 50.2554 43.0914 51.1489 42.4442 52.5062C42.027 53.3814 41.7513 53.7449 40.7615 54.725L39.5779 55.8972H46.5132C50.3275 55.8972 53.4483 55.8551 53.4483 55.8035C53.4477 55.4604 53.0183 53.3866 52.6952 52.1662C51.9753 49.4466 49.9814 45.8577 47.8757 43.491C47.3404 42.8895 46.8694 42.3972 46.8288 42.3972C46.7883 42.3972 46.6168 42.805 46.4475 43.3035Z" fill="black"/>
</svg>
