{"asset":{"version":"2.0","generator":"THREE.GLTFExporter"},"scenes":[{"name":"AuxScene","nodes":[1]}],"scene":0,"nodes":[{"name":"bunny","extras":{"name":"bunny"},"mesh":0},{"name":"Scene","children":[0]}],"bufferViews":[{"buffer":0,"byteOffset":0,"byteLength":355176,"target":34962,"byteStride":12},{"buffer":0,"byteOffset":355176,"byteLength":355176,"target":34962,"byteStride":12},{"buffer":0,"byteOffset":710352,"byteLength":236784,"target":34962,"byteStride":8},{"buffer":0,"byteOffset":947136,"byteLength":705048,"target":34963}],"buffers":[{"byteLength":1652184,"uri":"data:application/octet-stream;base64,"}],"accessors":[{"bufferView":0,"componentType":5126,"count":29598,"max":[0.8552299737930298,2.1343400478363037,0.8957440853118896],"min":[-1.2425638437271118,0.02728191576898098,-0.7059081792831421],"type":"VEC3"},{"bufferView":1,"componentType":5126,"count":29598,"max":[0.9998375177383423,0.9999685287475586,0.9999685287475586],"min":[-0.9999359846115112,-1,-0.9999685287475586],"type":"VEC3"},{"bufferView":2,"componentType":5126,"count":29598,"max":[0.9922999739646912,0.9810598492622375],"min":[0.007199999876320362,0.01714479923248291],"type":"VEC2"},{"bufferView":3,"componentType":5125,"count":176262,"max":[29597],"min":[0],"type":"SCALAR"}],"materials":[{"pbrMetallicRoughness":{"baseColorFactor":[0.9529411764705882,0.5764705882352941,0.5764705882352941,1],"metallicFactor":0,"roughnessFactor":0.5},"alphaMode":"BLEND","name":"Default OBJ"}],"meshes":[{"primitives":[{"mode":4,"attributes":{"POSITION":0,"NORMAL":1,"TEXCOORD_0":2},"indices":3,"material":0}]}]}